<svg width="150" height="203" viewBox="0 0 150 203" fill="none" xmlns="http://www.w3.org/2000/svg">
<g clip-path="url(#clip0_8_4586)">
<path d="M121.962 126.965H56.0674V130.681H121.962V126.965Z" fill="white" stroke="#3F4D90" stroke-width="5" stroke-linejoin="round"/>
<path d="M130.608 118.986C130.608 84.847 148.903 66.061 148.903 66.061H94.5208C94.5208 66.061 76.226 84.847 76.226 118.986H130.608Z" fill="white" stroke="#2A565A" stroke-width="6" stroke-miterlimit="10"/>
<path d="M56.602 118.986H130.608C130.608 121.102 129.701 123.132 128.086 124.629C126.471 126.125 124.28 126.966 121.996 126.966H47.99C47.99 124.85 48.8973 122.82 50.5124 121.323C52.1275 119.827 54.3179 118.986 56.602 118.986Z" fill="white" stroke="#2A565A" stroke-width="6" stroke-miterlimit="10"/>
<path d="M121.281 201.472C121.066 201.472 120.857 201.402 120.69 201.275C120.524 201.148 120.411 200.971 120.37 200.774L105.89 130.683H114.19L122.204 200.52C122.218 200.64 122.205 200.761 122.165 200.876C122.125 200.991 122.059 201.097 121.972 201.187C121.885 201.276 121.778 201.348 121.659 201.397C121.54 201.446 121.412 201.472 121.281 201.472Z" fill="white" stroke="#2A565A" stroke-width="5" stroke-linejoin="round"/>
<path d="M56.8847 201.472C57.1004 201.472 57.3095 201.402 57.4758 201.275C57.6422 201.148 57.7555 200.971 57.7963 200.774L72.2759 130.683H63.9775L55.9618 200.52C55.9479 200.64 55.9614 200.761 56.0014 200.876C56.0415 200.991 56.1072 201.097 56.1942 201.187C56.2813 201.276 56.3878 201.348 56.5067 201.397C56.6257 201.446 56.7545 201.472 56.8847 201.472Z" fill="white" stroke="#3F4D90" stroke-width="5" stroke-linejoin="round"/>
<path d="M40.751 87.4279C63.0122 92.3969 74.1656 86.7984 76.187 83.3834C76.187 83.3834 75.0739 76.9718 75.8961 67.0322C76.7183 57.0927 74.9894 34.8314 74.9894 34.8314C70.0838 36.5796 62.905 39.3773 60.7682 45.2046C58.6315 51.032 58.2951 66.9976 58.1684 73.8232C58.1684 73.8232 46.7469 77.4537 41.6301 79.9321C41.0594 80.2079 40.5959 80.6421 40.3046 81.174C40.0132 81.7058 39.9085 82.3088 40.0052 82.8985L40.751 87.4279Z" fill="#76B77F"/>
<path d="M62.7214 73.8232C62.7214 73.8232 60.5034 73.0071 56.095 73.9091" stroke="white" stroke-width="5" stroke-linejoin="round"/>
<path d="M42.0006 83.7899C42.1219 84.4823 42.0327 85.1922 41.7428 85.8402C41.4529 86.4881 40.9738 87.0483 40.3594 87.458L40.1043 87.6251C38.3608 88.7409 35.0167 89.6428 34.2238 89.5931C33.4308 89.5435 28.5561 88.7078 28.5561 88.7078C28.5561 88.7078 28.3822 88.0919 29.0956 87.2803C29.8089 86.4687 35.0346 87.1131 33.1237 85.3318C32.2739 84.5398 28.041 86.3271 26.2 88.3087C24.359 90.2903 23.4848 88.7198 23.4848 88.7198C23.4848 88.7198 25.2478 85.0487 25.8766 84.3847C26.5055 83.7206 30.7107 80.9003 33.5527 80.4697C34.9079 80.2649 36.8123 80.3809 38.7036 80.685C39.5333 80.8208 40.2966 81.1928 40.8875 81.7492C41.4784 82.3057 41.8675 83.019 42.0006 83.7899Z" fill="#C36F0B"/>
<path d="M54.1776 194.97C55.9748 194.593 58.4593 193.786 59.8437 192.086L60.6301 188.155C60.6301 188.155 55.4629 188.7 50.7426 188.281L51.6574 193.426C51.7079 193.684 51.814 193.929 51.9695 194.147C52.1249 194.366 52.3265 194.552 52.562 194.697C52.7974 194.841 53.062 194.939 53.3397 194.986C53.6173 195.033 53.9024 195.028 54.1776 194.97Z" fill="#E9FFEC"/>
<path d="M33.1481 199.784C33.1757 200.076 33.7444 201.47 33.7444 201.47L62.8091 200.558V199.052C62.8091 196.531 61.8846 194.355 61.3955 193.41C60.6415 191.951 59.5951 192.315 59.5951 192.315C59.5951 192.315 56.7531 194.89 53.5651 194.89C52.9508 194.89 52.5105 194.589 52.1953 194.149C52.0073 193.877 51.8607 193.582 51.7598 193.273C51.6274 192.87 51.5338 192.456 51.4803 192.038C51.4564 191.861 51.3868 191.692 51.2773 191.545C51.1679 191.399 51.0219 191.279 50.8517 191.196C50.6816 191.112 50.4922 191.068 50.2998 191.068C50.1074 191.067 49.9176 191.109 49.7465 191.19C48.4953 191.793 46.9761 193.121 42.9073 195.156C42.7042 195.259 42.4929 195.363 42.2752 195.47C37.3274 197.882 33.2033 196.984 33.1481 199.784Z" fill="#2A565A"/>
<path d="M36.419 202.803C35.5773 202.803 34.5504 202.45 33.9996 201.878C33.6569 201.506 33.4107 201.067 33.2797 200.593C33.1488 200.119 33.1365 199.624 33.244 199.145H33.2667C33.3834 199.715 33.7074 200.23 34.1848 200.605C34.6621 200.98 35.2638 201.192 35.8893 201.205L61.0868 200.521C61.8683 200.521 62.5378 200.02 62.8108 199.317V200.886C62.8108 201.947 61.9805 202.807 60.9551 202.807L36.419 202.803Z" fill="#76B77F"/>
<path d="M41.8137 195.689C43.2991 195.938 44.6785 196.571 45.7935 197.514C46.9084 198.457 47.7137 199.672 48.1167 201.02L49.2769 200.982C48.9092 199.593 48.1686 198.313 47.1241 197.26C46.0796 196.207 44.7649 195.415 43.3021 194.959L42.9089 195.156C42.7058 195.259 42.4946 195.363 42.2768 195.47C42.123 195.547 41.9686 195.62 41.8137 195.689Z" fill="#76B77F"/>
<path d="M38.9393 196.722V196.862C40.4173 196.864 41.8627 197.265 43.099 198.015C44.3352 198.766 45.3087 199.834 45.9004 201.089L47.106 201.052C46.6023 199.818 45.7818 198.717 44.7155 197.844C43.6492 196.97 42.3694 196.351 40.9867 196.039C40.3175 196.3 39.6341 196.528 38.9393 196.722Z" fill="#76B77F"/>
<path d="M89.4901 194.97C91.2873 194.593 93.6076 193.786 94.992 192.086L95.4551 187.828C95.4551 187.828 90.608 188.221 85.8877 187.801L86.9715 193.426C87.0218 193.684 87.1278 193.929 87.283 194.147C87.4383 194.365 87.6397 194.552 87.8751 194.697C88.1104 194.841 88.3749 194.939 88.6524 194.986C88.93 195.033 89.215 195.028 89.4901 194.97Z" fill="#E9FFEC"/>
<path d="M70.105 199.784C70.1326 200.076 70.7013 201.47 70.7013 201.47L98.1232 200.558V199.052C98.1232 196.531 97.1987 194.355 96.7112 193.41C95.9556 191.951 94.9108 192.011 94.9108 192.011C94.9108 192.011 92.0672 194.89 88.8791 194.89C88.2649 194.89 87.8246 194.589 87.511 194.149C87.3224 193.877 87.1758 193.582 87.0755 193.273C86.9423 192.87 86.8488 192.457 86.796 192.038C86.7718 191.861 86.702 191.692 86.5924 191.545C86.4828 191.399 86.3367 191.279 86.1664 191.196C85.9961 191.112 85.8067 191.069 85.6142 191.068C85.4217 191.067 85.2318 191.109 85.0606 191.19C83.8094 191.793 83.9329 193.121 79.8609 195.156C79.6578 195.259 79.4466 195.363 79.2288 195.47C74.2826 197.882 70.1586 196.984 70.105 199.784Z" fill="#2A565A"/>
<path d="M73.3743 202.803C72.5326 202.803 71.5056 202.45 70.9548 201.878C70.6122 201.506 70.3659 201.067 70.235 200.593C70.104 200.119 70.0918 199.624 70.1992 199.145H70.222C70.3386 199.715 70.6627 200.23 71.14 200.605C71.6173 200.98 72.219 201.192 72.8446 201.205L96.4057 200.521C97.1873 200.521 97.8551 200.02 98.1281 199.317V200.886C98.1281 201.947 97.2978 202.807 96.2725 202.807L73.3743 202.803Z" fill="#76B77F"/>
<path d="M78.769 195.689C80.2543 195.938 81.6338 196.571 82.7487 197.514C83.8637 198.457 84.669 199.672 85.072 201.02L86.2322 200.982C85.8644 199.593 85.1239 198.313 84.0794 197.26C83.0348 196.207 81.7202 195.415 80.2574 194.959L79.8642 195.156C79.6611 195.259 79.4498 195.363 79.2321 195.47C79.0783 195.547 78.9239 195.62 78.769 195.689Z" fill="#76B77F"/>
<path d="M75.8945 196.722V196.862C77.3725 196.864 78.818 197.265 80.0542 198.015C81.2905 198.766 82.2639 199.834 82.8556 201.089L84.0613 201.052C83.5575 199.818 82.737 198.717 81.6708 197.844C80.6045 196.97 79.3246 196.351 77.9419 196.039C77.2728 196.3 76.5894 196.528 75.8945 196.722Z" fill="#76B77F"/>
<path d="M96.9517 126.635C96.9517 126.635 108.684 142.122 98.3865 187.317C98.3865 187.317 92.9902 188.995 84.3895 187.769C84.3895 187.769 72.7454 143.823 71.1612 124.781C68.3046 124.703 65.3456 124.655 62.2957 124.655C62.2957 124.655 74.6011 147.963 62.6564 188.141C62.6564 188.141 53.8575 188.724 49.2314 188.112C49.2314 188.112 35.0314 122.42 35.9494 116.311C37.0479 108.959 62.0422 99.5703 77.7648 98.2468L112.954 98.045C112.954 98.045 121.974 106.477 118.209 118.441C115.385 127.417 96.9517 126.635 96.9517 126.635Z" fill="#46424D"/>
<path d="M115.518 101.144C115.632 101.464 115.807 101.762 116.035 102.025C116.035 102.025 85.1987 111.752 72.2222 99.5146C86.3215 104.088 109.459 101.847 115.518 101.144Z" fill="#F0E1D4"/>
<path d="M102.502 26.9111C104.105 28.1307 123.85 38.7359 126.679 40.1934C129.508 41.651 113.482 73.641 113.981 85.0548C114.351 93.5262 116.86 100.959 116.86 100.959C116.86 100.959 88.572 104.818 72.2222 99.5146C72.2222 99.5146 75.6183 94.8468 73.7318 85.1797C72.2027 77.3362 69.091 55.5628 69.9587 47.1862C70.274 44.1551 70.8394 36.6383 74.996 34.8314C81.2843 32.0954 85.6228 29.7118 85.6228 29.7118L102.502 26.9111Z" fill="#76B77F"/>
<path d="M73.7301 85.6315C72.2011 77.7879 69.1804 62.2605 71.4374 51.7517" stroke="white" stroke-width="5" stroke-linejoin="round"/>
<path d="M126.679 40.2808C135.106 47.1576 135.909 75.573 130.579 80.7513C120.141 90.8911 88.6322 90.7767 88.6322 90.7767C88.6322 90.7767 85.3352 90.3355 87.2217 83.2268C87.2217 83.2268 110.581 72.2949 112.845 72.3596C112.845 72.3596 112.468 52.08 117.247 46.0208C122.026 39.9616 125.688 39.4722 126.679 40.2808Z" fill="#76B77F"/>
<path d="M114.824 88.3705C102.455 91.2841 88.6321 90.9303 88.6321 90.9303" stroke="white" stroke-width="5" stroke-linecap="round" stroke-linejoin="round"/>
<path d="M87.2217 83.0747C87.2217 83.0747 99.6393 76.6149 112.845 72.2076C112.845 72.2076 113.394 56.668 114.783 52.1086" stroke="white" stroke-width="5" stroke-linejoin="round"/>
<path d="M87.7043 83.1183C87.7043 83.1183 80.6522 80.6504 78.3725 81.8911C75.8783 83.2463 71.2603 87.5784 70.9905 88.3072C70.7208 89.036 70.8037 89.7964 70.8524 90.5794C70.9012 91.3624 79.3507 91.3489 80.3516 91.2947C81.3526 91.2405 86.8399 91.7901 87.7661 90.858C91.1686 87.4414 87.7043 83.1183 87.7043 83.1183Z" fill="#E9FFEC"/>
<path d="M101.087 16.6794C101.087 16.6794 99.2005 21.0461 102.502 26.9186C102.502 26.9186 97.9737 32.895 90.803 32.8573C81.5411 32.8107 85.6147 29.7118 85.6147 29.7118C85.6147 29.7118 87.03 27.6128 86.7521 23.8544L101.087 16.6794Z" fill="#FEFFF4"/>
<path d="M99.6392 19.2738C99.4508 20.0899 99.4231 23.6134 97.8518 24.6042C95.8175 25.8872 89.8313 27.8989 85.3043 26.3841C84.7242 26.1898 81.8449 18.3418 82.0334 15.6615C82.2219 12.9812 82.2852 3.48284 88.6955 1.09319C95.1058 -1.29646 102.78 0.0391543 104.919 7.03645C105.793 9.89741 105.071 12.4572 103.913 14.4915C103.913 14.4915 104.654 15.7232 103.466 16.9504C102.174 18.2891 99.6392 19.2738 99.6392 19.2738Z" fill="#E9FFEC"/>
<path d="M103.527 15.5228C101.934 13.8311 99.7388 16.8387 99.7388 16.8387L99.7079 17C99.1076 16.6952 98.5967 16.2559 98.2207 15.7212C97.3036 14.4182 97.228 12.9684 97.35 7.75467C97.35 7.75467 88.4522 8.6368 82 7.18057C82.9909 4.57936 84.6465 2.2265 87.4441 1.17022C94.2226 -1.38906 102.332 0.0413611 104.59 7.53535C105.514 10.5978 104.752 13.3441 103.527 15.5228Z" fill="#46424D"/>
<path d="M92.7545 30.5475C93.9277 30.0431 98.791 28.4018 102.228 25.1764C102.228 25.1764 105.658 28.2587 105.689 28.8068C105.72 29.3549 98.4238 33.9385 96.3699 34.1327L92.7545 30.5475Z" fill="#76B77F"/>
<path d="M85.6228 28.072C85.9478 28.6156 86.77 29.8985 89.118 30.4812C89.118 30.4812 87.3988 33.0832 85.8048 33.8993C85.8048 33.8993 83.2049 32.8453 82.4981 31.472C82.0301 30.5671 85.6228 28.072 85.6228 28.072Z" fill="#76B77F"/>
<path d="M89.118 30.4812L90.8046 32.8498L92.7545 30.5475L94.5419 32.3183C94.5419 32.3183 92.0493 33.419 87.3923 32.63L89.118 30.4812Z" fill="#D8BAA3"/>
<path d="M0 90.9483H88.5217C89.3836 90.9483 90.2102 91.2656 90.8196 91.8304C91.4291 92.3952 91.7715 93.1612 91.7715 93.9599V94.7579C91.7715 95.5566 91.4291 96.3226 90.8196 96.8874C90.2102 97.4522 89.3836 97.7695 88.5217 97.7695H0.162491" fill="white"/>
<path d="M0 90.9483H88.5217C89.3836 90.9483 90.2102 91.2656 90.8196 91.8304C91.4291 92.3952 91.7715 93.1612 91.7715 93.9599V94.7579C91.7715 95.5566 91.4291 96.3226 90.8196 96.8874C90.2102 97.4522 89.3836 97.7695 88.5217 97.7695H0.162491" stroke="#46424D" stroke-width="6" stroke-miterlimit="10"/>
<path d="M69.8645 203V97.8779H76.9344V202.997" fill="white"/>
<path d="M69.8645 99.9679V97.8779H76.9344V105.143L69.8645 99.9679Z" fill="#F0E1D4"/>
<path d="M69.8645 202.848V97.8779H76.9344V202.845" stroke="#46424D" stroke-width="6" stroke-miterlimit="10"/>
<path d="M72.7682 90.9483H37.3728C36.8185 90.9483 36.2755 90.8029 35.8065 90.529C35.3375 90.2551 34.9618 89.8638 34.7226 89.4004L23.2817 67.2476C23.1717 67.0349 23.1218 66.7999 23.1366 66.5645C23.1513 66.3292 23.2302 66.1011 23.3659 65.9016C23.5016 65.7022 23.6896 65.5379 23.9125 65.4241C24.1353 65.3103 24.3856 65.2507 24.6401 65.2509H60.0354C60.5898 65.2509 61.1328 65.3963 61.6018 65.6702C62.0707 65.9441 62.4465 66.3354 62.6856 66.7988L74.1266 88.9547C74.2358 89.1672 74.2851 89.4019 74.27 89.6369C74.2549 89.8718 74.1759 90.0994 74.0403 90.2984C73.9047 90.4975 73.7169 90.6614 73.4945 90.7751C73.272 90.8887 73.0222 90.9483 72.7682 90.9483Z" fill="white" stroke="#2A565A" stroke-width="5" stroke-miterlimit="10"/>
<path d="M72.7113 90.6156H37.8863C37.3675 90.598 36.8637 90.4492 36.4295 90.1854C35.9953 89.9216 35.6473 89.5528 35.423 89.1188L30.3858 79.3539L30.4621 79.2305H68.6474L68.7108 79.3524L73.5287 88.6882C74.2582 89.7784 73.7821 90.6156 72.7113 90.6156Z" fill="#F0E1D4"/>
<path d="M69.0585 79.1823L62.5833 89.6594C62.0958 90.4484 61.064 90.9514 59.9314 90.9514H24.5361C23.4279 90.9514 22.7 90.0569 23.1777 89.283L29.4238 79.1823H69.0585Z" fill="white" stroke="#2A565A" stroke-width="5" stroke-linejoin="round"/>
</g>
<defs>
<clipPath id="clip0_8_4586">
<rect width="150" height="203" fill="white"/>
</clipPath>
</defs>
</svg>
