<svg width="100" height="100" viewBox="0 0 100 100" fill="none" xmlns="http://www.w3.org/2000/svg">
<path d="M67.36 59.9602L60.5597 62.04C60.1596 63.16 59.4398 64.1199 58.4799 64.92L50.64 71.0802C51.2801 72.68 53.0402 73.4803 54.64 73.0003H54.7198C56.4001 72.44 57.4397 70.9204 57.4397 69.2403C58.2399 69.7202 59.2795 69.8804 60.24 69.5601H60.3198C62.1596 68.9998 63.1998 66.9998 62.6395 65.0802C63.4397 65.5601 64.4793 65.7203 65.4398 65.4H65.5196C67.3594 64.8397 68.3996 62.8397 67.8393 60.9201L67.36 59.9602Z" fill="#76B77F"/>
<path d="M57.76 56.6802C56.2399 54.76 53.3599 54.4402 51.4403 55.9603L44.0006 61.8804C40.9604 64.2806 36.4804 62.9206 35.3606 59.1606L31.0409 44.6806C26.0799 47.0801 17.84 62.7591 17.84 62.7591L13.3602 65.0789C12.32 65.6391 11.84 66.7591 12.08 67.8791L16.08 81.7993C16.4003 83.0794 17.6002 83.7993 18.8005 83.5593C21.1202 83.1592 24.8803 82.5995 28.1605 82.7591C30.6403 82.9192 34.1605 81.2389 34.8005 80.6792C36.8005 79.0793 57.0405 62.9992 57.0405 62.9992C58.9602 61.4791 59.2805 58.5991 57.7603 56.6795L57.76 56.6802Z" fill="url(#paint0_linear_5_94)"/>
<path d="M40.56 60.6002C39.5199 60.6002 38.2403 60.0399 37.7597 58.5203L30.56 34.4403C29.92 32.3604 31.1203 30.2003 33.1203 29.64L74.8003 17.1602C75.2004 17.0804 75.5202 17 75.9203 17C77.6006 17 79.12 18.12 79.6006 19.8003L87.84 47.0803C88.2401 48.2801 88.0002 49.6406 87.1201 50.6801C86.6402 51.2404 85.9204 51.7203 85.2 51.9603L61.2 59.16C61.2 58.8402 61.1202 58.5199 61.1202 58.28C60.96 57.16 60.4801 56.2001 59.6805 55.2398C58.3205 53.5595 56.3205 52.5998 54.1603 52.5998C53.4405 52.5998 52.8004 52.6796 52.0805 52.9196C51.2004 53.1595 50.4002 53.5596 49.6803 54.1997L42.2406 60.1198C41.8405 60.3598 41.6005 60.52 41.2808 60.5998C41.1201 60.52 40.8801 60.5998 40.5604 60.5998L40.56 60.6002ZM79.6 45.4802C79.4399 45.4802 79.2803 45.4802 79.1201 45.56L66.8004 49.2402C66.4003 49.4004 66.0002 49.6404 65.8406 50.0405C65.6006 50.4406 65.6006 50.8407 65.6804 51.3206C65.9204 52.0405 66.5604 52.5204 67.2803 52.5204C67.4404 52.5204 67.6 52.5204 67.7602 52.4406L80.0799 48.7603C80.9599 48.5203 81.4398 47.5605 81.1999 46.7603C80.9599 45.9606 80.3199 45.4802 79.6 45.4802ZM44.4 41.0806C42.5602 42.3607 41.52 44.6804 41.9202 46.9204L42.3203 49.6403C42.4001 50.3602 43.0402 50.9204 43.76 50.9204C43.9202 50.9204 44.0798 50.9204 44.1601 50.8406L56.9604 47.0008C57.3605 46.8406 57.6803 46.6007 57.8404 46.2005C58.0006 45.8004 58.0006 45.4003 57.8404 45.0008L56.7205 42.4405C55.7606 40.3606 53.6803 39.0008 51.4403 38.9203C50.4001 39.9605 49.3605 40.6006 48.1602 41.0002C47.5201 41.1604 46.88 41.32 46.24 41.32C45.6798 41.32 45.1201 41.2402 44.5597 41.08H44.3996L44.4 41.0806ZM77.6 38.8406C77.4399 38.8406 77.2803 38.8406 77.1201 38.9204L64.8004 42.6007C63.9204 42.8406 63.4405 43.8004 63.6804 44.6805C63.9204 45.4004 64.5605 45.8803 65.2803 45.8803C65.4404 45.8803 65.6 45.8803 65.7602 45.8005L78.0799 42.1202C78.48 41.9601 78.7998 41.7201 79.0397 41.32C79.2797 40.9199 79.2797 40.5198 79.1999 40.0399C78.9599 39.3205 78.3199 38.8406 77.6 38.8406ZM46.48 30.4404C46.0001 30.4404 45.6 30.5202 45.1201 30.6804C43.9203 31.0805 42.96 31.8802 42.3198 33.0001C41.7595 34.1201 41.5999 35.4003 41.9197 36.6C42.48 38.6 44.3996 39.96 46.3996 39.96C46.8795 39.96 47.2796 39.8802 47.7595 39.72C50.2393 39.0001 51.6796 36.36 50.8795 33.8802C50.4001 31.8003 48.5605 30.4404 46.48 30.4404ZM67.44 36.8406C67.5198 37.2407 67.9199 37.4807 68.3201 37.4807H68.56L71.1203 36.6804C71.6002 36.5203 71.8402 36.0404 71.7604 35.5605L70.8803 32.6805L73.7603 31.8004C74.0003 31.7206 74.1604 31.5605 74.3206 31.4003C74.4004 31.1604 74.4808 30.9204 74.4004 30.6804L73.6002 28.1202C73.5204 27.72 73.1203 27.4801 72.7202 27.4801H72.4802L69.6002 28.3601L68.7202 25.4801C68.6404 25.08 68.2403 24.84 67.8401 24.84H67.6002L65.0399 25.6403C64.7999 25.7201 64.6398 25.8802 64.4796 26.0404C64.4004 26.2803 64.4004 26.5203 64.4004 26.7603L65.2804 29.6403L62.4004 30.5203C61.9205 30.6804 61.6805 31.1604 61.7603 31.6403L62.5606 34.2005C62.6404 34.6007 63.0405 34.8406 63.4406 34.8406H63.6806L66.5606 33.9606L67.44 36.8406Z" fill="url(#paint1_linear_5_94)"/>
<defs>
<linearGradient id="paint0_linear_5_94" x1="12" y1="61" x2="35" y2="68" gradientUnits="userSpaceOnUse">
<stop stop-color="#729EA2"/>
<stop offset="1" stop-color="#76B77F"/>
</linearGradient>
<linearGradient id="paint1_linear_5_94" x1="51.5" y1="42" x2="82.5" y2="42" gradientUnits="userSpaceOnUse">
<stop offset="0.0156882" stop-color="#729EA2"/>
<stop offset="0.0157882" stop-color="#729EA2"/>
<stop offset="1" stop-color="#76B77F"/>
</linearGradient>
</defs>
</svg>
